# xmcd
#
# Track frame offsets:
#	150
#	11095
#	20456
#	33684
#	44037
#	52959
#	61464
#	75561
#	88110
#	100392
#	110220
#	121972
#	130650
#	143857
#	152805
#	163412
#	174494
#	188842
#	200381
#	212630
#	222825
#	232785
#	244720
#	256615
#	266525
#	276405
#	285516
#	296732
#	308691
#	320107
#
# Disc length: 4413 seconds
#
# Revision: 1
# Processed by: cddbd v1.5.1PL2 Copyright (c) Steve Scherf et al.
# Submitted via: audiograbber 1.82.02
#
DISCID=c0113b1e
DTITLE=Various Artist - Flip Hits And Misses
DYEAR=1900
DGENRE=R&B
TTITLE0=Six Teens - A Casual Look
TTITLE1=Six Teens (Trudy Williams and The) - Arrow Of Love
TTITLE2=Six Teens (fb Trudy Williams) - Only Jim
TTITLE3=Six Teens - Teenage Promise
TTITLE4=Six Teens - My Special Guy
TTITLE5=Six Teens (fb Trudy Williams) - Why Do I Go To School
TTITLE6=Vel-Aires (Donald Woods and The) - Death Of An Angel
TTITLE7=Bel-Aires (Donald Woods and The) - This Paradise
TTITLE8=Vel-Aires (Donald Woods and The) - Stay With Me Always
TTITLE9=Pharaohs (Richard Berry and The) - Louie Louie
TTITLE10=Jennell Hawkins (bb Richard Berry and Lockettes) - The Mess Around
TTITLE11=Pharaohs (Richard Berry and The) - Take The Key (And Open Up My Heart)
TTITLE12=Pharaohs (Richard Berry and The) - Have Love Will Travel
TTITLE13=Dreamers - Since You've Been Gone
TTITLE14=Dreamers - Do Not Forget
TTITLE15=Elgins - Uncle Sam's Man
TTITLE16=Emotions (Lena Calhoun and The) - Been lookin' Your Way
TTITLE17=Ray Johnson Combo - Wanna, Wanna, Wanna, Wanna
TTITLE18=Ray Johnson Combo - Ghost Town
TTITLE19=Colby Wolf Combo - Rock-A-Billy Gal
TTITLE20=Colby Wolf Combo (Jonathan W Craig and The) - Rock-A-Billy Gal (vocal)
TTITLE21=Romancers (Rocky Holman and The) - My Precious Love
TTITLE22=Rosalle and Donell - Beginning Of Our Love
TTITLE23=Rosalle and Donell - Shame On You
TTITLE24=Sherman Williams - Teenage Bounce
TTITLE25=Jimmie Smith and Group - Night Time Is The Time (I Miss You)
TTITLE26=Sherman Williams - I'm Looking For A New Love
TTITLE27=Ray Johnson Combo - Longing
TTITLE28=Sherman Williams and His Band - The Snake
TTITLE29=Shank and Maydiea - Bye Bye Baby (My Pride)
EXTD=
EXTT0=
EXTT1=
EXTT2=
EXTT3=
EXTT4=
EXTT5=
EXTT6=
EXTT7=
EXTT8=
EXTT9=
EXTT10=
EXTT11=
EXTT12=
EXTT13=
EXTT14=
EXTT15=
EXTT16=
EXTT17=
EXTT18=
EXTT19=
EXTT20=
EXTT21=
EXTT22=
EXTT23=
EXTT24=
EXTT25=
EXTT26=
EXTT27=
EXTT28=
EXTT29=
PLAYORDER=
